Chivo-Black Italic.ufo
<glyph name="ampersand" format="1">
  <advance width="709"/>
  <unicode hex="0026"/>
  <outline>
    <contour>
      <point x="203" y="696"/>
      <point x="77" y="624"/>
      <point x="77" y="479" type="curve" smooth="yes"/>
      <point x="77" y="423"/>
      <point x="104" y="377"/>
      <point x="160" y="358" type="curve"/>
      <point x="65" y="335"/>
      <point x="12" y="270"/>
      <point x="12" y="166" type="curve" smooth="yes"/>
      <point x="12" y="38"/>
      <point x="129" y="0"/>
      <point x="259" y="0" type="curve" smooth="yes"/>
      <point x="578" y="0" type="line"/>
      <point x="617" y="279" type="line"/>
      <point x="697" y="279" type="line"/>
      <point x="717" y="421" type="line"/>
      <point x="637" y="421" type="line"/>
      <point x="653" y="540" type="line"/>
      <point x="516" y="540" type="line"/>
      <point x="446" y="421" type="line"/>
      <point x="325" y="421" type="line" smooth="yes"/>
      <point x="283" y="421"/>
      <point x="269" y="451"/>
      <point x="269" y="475" type="curve" smooth="yes"/>
      <point x="269" y="522"/>
      <point x="299" y="548"/>
      <point x="352" y="548" type="curve" smooth="yes"/>
      <point x="363" y="548"/>
      <point x="371" y="546"/>
      <point x="380" y="543" type="curve"/>
      <point x="401" y="693" type="line"/>
      <point x="385" y="695"/>
      <point x="368" y="696"/>
      <point x="351" y="696" type="curve" smooth="yes"/>
    </contour>
    <contour>
      <point x="399" y="138" type="line"/>
      <point x="290" y="138" type="line" smooth="yes"/>
      <point x="249" y="138"/>
      <point x="214" y="156"/>
      <point x="214" y="199" type="curve" smooth="yes"/>
      <point x="214" y="227"/>
      <point x="225" y="279"/>
      <point x="305" y="279" type="curve" smooth="yes"/>
      <point x="419" y="279" type="line"/>
    </contour>
  </outline>
</glyph>
<glyph name="plus" format="1">
  <advance width="615"/>
  <unicode hex="002B"/>
  <outline>
    <contour>
      <point x="274" y="512" type="line"/>
      <point x="247" y="320" type="line"/>
      <point x="55" y="320" type="line"/>
      <point x="38" y="192" type="line"/>
      <point x="230" y="192" type="line"/>
      <point x="203" y="0" type="line"/>
      <point x="331" y="0" type="line"/>
      <point x="358" y="192" type="line"/>
      <point x="550" y="192" type="line"/>
      <point x="567" y="320" type="line"/>
      <point x="375" y="320" type="line"/>
      <point x="402" y="512" type="line"/>
    </contour>
  </outline>
</glyph>
<glyph name="two" format="1">
  <advance width="615"/>
  <unicode hex="0032"/>
  <outline>
    <contour>
      <point x="350" y="696" type="line" smooth="yes"/>
      <point x="187" y="696"/>
      <point x="71" y="597"/>
      <point x="60" y="442" type="curve"/>
      <point x="236" y="442" type="line"/>
      <point x="240" y="470" type="line" smooth="yes"/>
      <point x="246" y="510"/>
      <point x="280" y="540"/>
      <point x="319" y="540" type="curve" smooth="yes"/>
      <point x="332" y="540" type="line" smooth="yes"/>
      <point x="368" y="540"/>
      <point x="393" y="514"/>
      <point x="393" y="479" type="curve" smooth="yes"/>
      <point x="393" y="410"/>
      <point x="355" y="388"/>
      <point x="104" y="209" type="curve" smooth="yes"/>
      <point x="36" y="161"/>
      <point x="11" y="111"/>
      <point x="1" y="36" type="curve" smooth="yes"/>
      <point x="-4" y="0" type="line"/>
      <point x="530" y="0" type="line"/>
      <point x="553" y="168" type="line"/>
      <point x="290" y="168" type="line"/>
      <point x="427" y="256"/>
      <point x="597" y="329"/>
      <point x="597" y="508" type="curve" smooth="yes"/>
      <point x="597" y="620"/>
      <point x="516" y="696"/>
      <point x="381" y="696" type="curve" smooth="yes"/>
    </contour>
  </outline>
</glyph>
<glyph name="colon" format="1">
  <advance width="308"/>
  <unicode hex="003A"/>
  <outline>
    <contour>
      <point x="89" y="511" type="line"/>
      <point x="64" y="328" type="line"/>
      <point x="255" y="328" type="line"/>
      <point x="280" y="511" type="line"/>
    </contour>
    <contour>
      <point x="43" y="183" type="line"/>
      <point x="18" y="0" type="line"/>
      <point x="209" y="0" type="line"/>
      <point x="234" y="183" type="line"/>
    </contour>
  </outline>
</glyph>
<glyph name="K" format="1">
  <advance width="684"/>
  <unicode hex="004B"/>
  <outline>
    <contour>
      <point x="513" y="686" type="line"/>
      <point x="279" y="415" type="line"/>
      <point x="317" y="686" type="line"/>
      <point x="113" y="686" type="line"/>
      <point x="16" y="0" type="line"/>
      <point x="220" y="0" type="line"/>
      <point x="242" y="152" type="line"/>
      <point x="335" y="248" type="line"/>
      <point x="419" y="0" type="line"/>
      <point x="654" y="0" type="line"/>
      <point x="497" y="411" type="line"/>
      <point x="745" y="686" type="line"/>
    </contour>
    <contour>
      <point x="412" y="686" type="move" name="top"/>
    </contour>
    <contour>
      <point x="342" y="0" type="move" name="bottom"/>
    </contour>
  </outline>
</glyph>
<glyph name="L" format="1">
  <advance width="540"/>
  <unicode hex="004C"/>
  <outline>
    <contour>
      <point x="113" y="686" type="line"/>
      <point x="16" y="0" type="line"/>
      <point x="497" y="0" type="line"/>
      <point x="497" y="168" type="line"/>
      <point x="252" y="168" type="line"/>
      <point x="325" y="686" type="line"/>
    </contour>
    <contour>
      <point x="270" y="686" type="move" name="top"/>
    </contour>
    <contour>
      <point x="270" y="0" type="move" name="bottom"/>
    </contour>
    <contour>
      <point x="521" y="686" type="move" name="topright"/>
    </contour>
  </outline>
</glyph>
<glyph name="M" format="1">
  <advance width="1004"/>
  <unicode hex="004D"/>
  <outline>
    <contour>
      <point x="657" y="686" type="line"/>
      <point x="508" y="320" type="line"/>
      <point x="504" y="320" type="line"/>
      <point x="457" y="686" type="line"/>
      <point x="113" y="686" type="line"/>
      <point x="16" y="0" type="line"/>
      <point x="207" y="0" type="line"/>
      <point x="269" y="440" type="line"/>
      <point x="274" y="440" type="line"/>
      <point x="331" y="0" type="line"/>
      <point x="572" y="0" type="line"/>
      <point x="754" y="440" type="line"/>
      <point x="758" y="440" type="line"/>
      <point x="696" y="0" type="line"/>
      <point x="906" y="0" type="line"/>
      <point x="1003" y="686" type="line"/>
    </contour>
  </outline>
</glyph>
<glyph name="Z" format="1">
  <advance width="607"/>
  <unicode hex="005A"/>
  <outline>
    <contour>
      <point x="93" y="686" type="line"/>
      <point x="70" y="526" type="line"/>
      <point x="315" y="526" type="line"/>
      <point x="-18" y="61" type="line"/>
      <point x="-27" y="0" type="line"/>
      <point x="543" y="0" type="line"/>
      <point x="566" y="161" type="line"/>
      <point x="294" y="161" type="line"/>
      <point x="623" y="625" type="line"/>
      <point x="632" y="686" type="line"/>
    </contour>
    <contour>
      <point x="334" y="686" type="move" name="top"/>
    </contour>
  </outline>
</glyph>
<glyph name="bracketleft" format="1">
  <advance width="318"/>
  <unicode hex="005B"/>
  <outline>
    <contour>
      <point x="112" y="686" type="line"/>
      <point x="-7" y="-161" type="line"/>
      <point x="230" y="-161" type="line"/>
      <point x="242" y="-78" type="line"/>
      <point x="154" y="-78" type="line"/>
      <point x="249" y="603" type="line"/>
      <point x="337" y="603" type="line"/>
      <point x="349" y="686" type="line"/>
    </contour>
  </outline>
</glyph>
<glyph name="backslash" format="1">
  <advance width="648"/>
  <unicode hex="005C"/>
  <outline>
    <contour>
      <point x="68" y="686" type="line"/>
      <point x="436" y="-171" type="line"/>
      <point x="568" y="-171" type="line"/>
      <point x="199" y="686" type="line"/>
    </contour>
  </outline>
</glyph>
<glyph name="bracketright" format="1">
  <advance width="317"/>
  <unicode hex="005D"/>
  <outline>
    <contour>
      <point x="79" y="686" type="line"/>
      <point x="67" y="603" type="line"/>
      <point x="155" y="603" type="line"/>
      <point x="60" y="-78" type="line"/>
      <point x="-28" y="-78" type="line"/>
      <point x="-40" y="-161" type="line"/>
      <point x="197" y="-161" type="line"/>
      <point x="316" y="686" type="line"/>
    </contour>
  </outline>
</glyph>
<glyph name="n" format="1">
  <advance width="597"/>
  <unicode hex="006E"/>
  <outline>
    <contour>
      <point x="303" y="521"/>
      <point x="254" y="458"/>
      <point x="238" y="437" type="curve"/>
      <point x="229" y="511" type="line"/>
      <point x="80" y="511" type="line"/>
      <point x="8" y="0" type="line"/>
      <point x="206" y="0" type="line"/>
      <point x="251" y="320" type="line" smooth="yes"/>
      <point x="256" y="353"/>
      <point x="277" y="380"/>
      <point x="312" y="380" type="curve" smooth="yes"/>
      <point x="343" y="380"/>
      <point x="358" y="358"/>
      <point x="358" y="330" type="curve" smooth="yes"/>
      <point x="358" y="306"/>
      <point x="332" y="151"/>
      <point x="312" y="0" type="curve"/>
      <point x="510" y="0" type="line"/>
      <point x="521" y="68"/>
      <point x="528" y="130"/>
      <point x="536" y="185" type="curve" smooth="yes"/>
      <point x="546" y="255" type="line" smooth="yes"/>
      <point x="556" y="324"/>
      <point x="563" y="380"/>
      <point x="563" y="392" type="curve" smooth="yes"/>
      <point x="563" y="465"/>
      <point x="515" y="521"/>
      <point x="419" y="521" type="curve" smooth="yes"/>
    </contour>
    <contour>
      <point x="369" y="511" type="move" name="top"/>
    </contour>
    <contour>
      <point x="299" y="0" type="move" name="bottom"/>
    </contour>
  </outline>
</glyph>
<glyph name="r" format="1">
  <advance width="504"/>
  <unicode hex="0072"/>
  <outline>
    <contour>
      <point x="305" y="521"/>
      <point x="247" y="452"/>
      <point x="239" y="437" type="curve"/>
      <point x="228" y="511" type="line"/>
      <point x="80" y="511" type="line"/>
      <point x="8" y="0" type="line"/>
      <point x="201" y="0" type="line"/>
      <point x="247" y="328" type="line" smooth="yes"/>
      <point x="251" y="356"/>
      <point x="269" y="378"/>
      <point x="297" y="378" type="curve" smooth="yes"/>
      <point x="317" y="378"/>
      <point x="332" y="367"/>
      <point x="332" y="336" type="curve" smooth="yes"/>
      <point x="332" y="328"/>
      <point x="329" y="316"/>
      <point x="329" y="304" type="curve"/>
      <point x="491" y="304" type="line"/>
      <point x="498" y="342"/>
      <point x="508" y="384"/>
      <point x="508" y="410" type="curve" smooth="yes"/>
      <point x="508" y="478"/>
      <point x="466" y="521"/>
      <point x="386" y="521" type="curve" smooth="yes"/>
    </contour>
    <contour>
      <point x="212" y="511" type="move" name="top"/>
    </contour>
    <contour>
      <point x="105" y="0" type="move" name="bottom"/>
    </contour>
  </outline>
</glyph>
<glyph name="u" format="1">
  <advance width="627"/>
  <unicode hex="0075"/>
  <outline>
    <contour>
      <point x="381" y="511" type="line"/>
      <point x="336" y="191" type="line" smooth="yes"/>
      <point x="331" y="158"/>
      <point x="310" y="131"/>
      <point x="275" y="131" type="curve" smooth="yes"/>
      <point x="244" y="131"/>
      <point x="229" y="153"/>
      <point x="229" y="181" type="curve" smooth="yes"/>
      <point x="229" y="188"/>
      <point x="239" y="272"/>
      <point x="252" y="352" type="curve"/>
      <point x="275" y="511" type="line"/>
      <point x="77" y="511" type="line"/>
      <point x="49" y="338"/>
      <point x="24" y="156"/>
      <point x="24" y="119" type="curve" smooth="yes"/>
      <point x="24" y="46"/>
      <point x="72" y="-10"/>
      <point x="168" y="-10" type="curve" smooth="yes"/>
      <point x="264" y="-10"/>
      <point x="317" y="48"/>
      <point x="335" y="71" type="curve"/>
      <point x="346" y="20"/>
      <point x="382" y="-10"/>
      <point x="471" y="-10" type="curve" smooth="yes"/>
      <point x="521" y="-10"/>
      <point x="554" y="0"/>
      <point x="575" y="13" type="curve"/>
      <point x="590" y="120" type="line"/>
      <point x="576" y="114"/>
      <point x="566" y="111"/>
      <point x="554" y="111" type="curve" smooth="yes"/>
      <point x="541" y="111"/>
      <point x="527" y="120"/>
      <point x="527" y="140" type="curve" smooth="yes"/>
      <point x="527" y="158"/>
      <point x="553" y="336"/>
      <point x="579" y="511" type="curve"/>
    </contour>
    <contour>
      <point x="564" y="10" type="move" name="ogonek"/>
    </contour>
    <contour>
      <point x="328" y="511" type="move" name="top"/>
    </contour>
  </outline>
</glyph>
<glyph name="sterling" format="1">
  <advance width="668"/>
  <unicode hex="00A3"/>
  <outline>
    <contour>
      <point x="281" y="700"/>
      <point x="174" y="609"/>
      <point x="157" y="493" type="curve" smooth="yes"/>
      <point x="145" y="413" type="line"/>
      <point x="51" y="413" type="line"/>
      <point x="32" y="266" type="line"/>
      <point x="125" y="266" type="line"/>
      <point x="108" y="147" type="line"/>
      <point x="44" y="147" type="line"/>
      <point x="24" y="0" type="line"/>
      <point x="546" y="0" type="line"/>
      <point x="567" y="147" type="line"/>
      <point x="285" y="147" type="line"/>
      <point x="322" y="266" type="line"/>
      <point x="419" y="266" type="line"/>
      <point x="439" y="413" type="line"/>
      <point x="343" y="413" type="line"/>
      <point x="355" y="494" type="line" smooth="yes"/>
      <point x="360" y="526"/>
      <point x="381" y="552"/>
      <point x="421" y="552" type="curve" smooth="yes"/>
      <point x="450" y="552"/>
      <point x="471" y="530"/>
      <point x="471" y="501" type="curve" smooth="yes"/>
      <point x="471" y="494"/>
      <point x="470" y="485"/>
      <point x="469" y="478" type="curve" smooth="yes"/>
      <point x="467" y="466" type="line"/>
      <point x="666" y="466" type="line"/>
      <point x="669" y="484" type="line" smooth="yes"/>
      <point x="670" y="495"/>
      <point x="672" y="506"/>
      <point x="672" y="517" type="curve" smooth="yes"/>
      <point x="672" y="620"/>
      <point x="574" y="700"/>
      <point x="442" y="700" type="curve" smooth="yes"/>
    </contour>
  </outline>
</glyph>
<glyph name="currency" format="1">
  <advance width="607"/>
  <unicode hex="00A4"/>
  <outline>
    <contour>
      <point x="475" y="545" type="line"/>
      <point x="452" y="569"/>
      <point x="401" y="587"/>
      <point x="345" y="587" type="curve" smooth="yes"/>
      <point x="292" y="587"/>
      <point x="232" y="570"/>
      <point x="199" y="543" type="curve"/>
      <point x="150" y="600" type="line"/>
      <point x="78" y="537" type="line"/>
      <point x="128" y="479" type="line"/>
      <point x="85" y="441"/>
      <point x="59" y="365"/>
      <point x="59" y="302" type="curve" smooth="yes"/>
      <point x="59" y="261"/>
      <point x="69" y="224"/>
      <point x="88" y="199" type="curve"/>
      <point x="22" y="141" type="line"/>
      <point x="75" y="80" type="line"/>
      <point x="140" y="137" type="line"/>
      <point x="168" y="108"/>
      <point x="219" y="91"/>
      <point x="275" y="91" type="curve" smooth="yes"/>
      <point x="332" y="91"/>
      <point x="389" y="108"/>
      <point x="424" y="139" type="curve"/>
      <point x="474" y="81" type="line"/>
      <point x="542" y="141" type="line"/>
      <point x="494" y="197" type="line"/>
      <point x="537" y="241"/>
      <point x="561" y="313"/>
      <point x="561" y="381" type="curve" smooth="yes"/>
      <point x="561" y="422"/>
      <point x="552" y="458"/>
      <point x="536" y="479" type="curve"/>
      <point x="600" y="535" type="line"/>
      <point x="541" y="603" type="line"/>
    </contour>
    <contour>
      <point x="399" y="477"/>
      <point x="440" y="426"/>
      <point x="440" y="362" type="curve" smooth="yes"/>
      <point x="440" y="279"/>
      <point x="375" y="201"/>
      <point x="291" y="201" type="curve" smooth="yes"/>
      <point x="224" y="201"/>
      <point x="180" y="250"/>
      <point x="180" y="317" type="curve" smooth="yes"/>
      <point x="180" y="402"/>
      <point x="249" y="477"/>
      <point x="330" y="477" type="curve" smooth="yes"/>
    </contour>
  </outline>
</glyph>
<glyph name="uni00B3" format="1">
  <advance width="354"/>
  <unicode hex="00B3"/>
  <outline>
    <contour>
      <point x="239" y="801" type="line" smooth="yes"/>
      <point x="157" y="801"/>
      <point x="89" y="756"/>
      <point x="89" y="687" type="curve"/>
      <point x="179" y="687" type="line"/>
      <point x="182" y="706"/>
      <point x="200" y="721"/>
      <point x="221" y="721" type="curve" smooth="yes"/>
      <point x="231" y="721" type="line" smooth="yes"/>
      <point x="250" y="721"/>
      <point x="262" y="707"/>
      <point x="262" y="690" type="curve" smooth="yes"/>
      <point x="262" y="655"/>
      <point x="240" y="644"/>
      <point x="220" y="644" type="curve" smooth="yes"/>
      <point x="173" y="644" type="line"/>
      <point x="163" y="578" type="line"/>
      <point x="218" y="578" type="line" smooth="yes"/>
      <point x="237" y="578"/>
      <point x="251" y="569"/>
      <point x="251" y="546" type="curve" smooth="yes"/>
      <point x="251" y="515"/>
      <point x="233" y="493"/>
      <point x="201" y="493" type="curve" smooth="yes"/>
      <point x="187" y="493" type="line" smooth="yes"/>
      <point x="154" y="493"/>
      <point x="150" y="511"/>
      <point x="150" y="531" type="curve"/>
      <point x="55" y="531" type="line"/>
      <point x="52" y="515"/>
      <point x="52" y="510"/>
      <point x="52" y="506" type="curve" smooth="yes"/>
      <point x="52" y="453"/>
      <point x="94" y="413"/>
      <point x="178" y="413" type="curve" smooth="yes"/>
      <point x="200" y="413" type="line" smooth="yes"/>
      <point x="275" y="413"/>
      <point x="356" y="450"/>
      <point x="356" y="539" type="curve" smooth="yes"/>
      <point x="356" y="577"/>
      <point x="340" y="603"/>
      <point x="307" y="616" type="curve"/>
      <point x="342" y="631"/>
      <point x="371" y="669"/>
      <point x="371" y="712" type="curve" smooth="yes"/>
      <point x="371" y="763"/>
      <point x="327" y="801"/>
      <point x="255" y="801" type="curve" smooth="yes"/>
    </contour>
  </outline>
</glyph>
<glyph name="acute" format="1">
  <advance width="333"/>
  <unicode hex="00B4"/>
  <outline>
    <contour>
      <point x="143" y="720" type="line"/>
      <point x="31" y="575" type="line"/>
      <point x="149" y="575" type="line"/>
      <point x="295" y="717" type="line"/>
      <point x="294" y="720" type="line"/>
    </contour>
    <contour>
      <point x="103" y="511" type="move" name="_top"/>
    </contour>
  </outline>
</glyph>
<glyph name="uni00B9" format="1">
  <advance width="335"/>
  <unicode hex="00B9"/>
  <outline>
    <contour>
      <point x="261" y="796" type="line"/>
      <point x="216" y="769"/>
      <point x="151" y="741"/>
      <point x="102" y="738" type="curve"/>
      <point x="93" y="676" type="line"/>
      <point x="175" y="676" type="line"/>
      <point x="151" y="504" type="line"/>
      <point x="69" y="504" type="line"/>
      <point x="57" y="422" type="line"/>
      <point x="322" y="422" type="line"/>
      <point x="334" y="504" type="line"/>
      <point x="256" y="504" type="line"/>
      <point x="297" y="796" type="line"/>
    </contour>
  </outline>
</glyph>
<glyph name="threequarters" format="1">
  <advance width="757"/>
  <unicode hex="00BE"/>
  <outline>
    <contour>
      <point x="612" y="686" type="line"/>
      <point x="96" y="0" type="line"/>
      <point x="185" y="0" type="line"/>
      <point x="698" y="686" type="line"/>
    </contour>
    <contour>
      <point x="230" y="693" type="line" smooth="yes"/>
      <point x="148" y="693"/>
      <point x="80" y="648"/>
      <point x="80" y="579" type="curve"/>
      <point x="170" y="579" type="line"/>
      <point x="173" y="598"/>
      <point x="191" y="613"/>
      <point x="212" y="613" type="curve" smooth="yes"/>
      <point x="222" y="613" type="line" smooth="yes"/>
      <point x="241" y="613"/>
      <point x="253" y="599"/>
      <point x="253" y="582" type="curve" smooth="yes"/>
      <point x="253" y="547"/>
      <point x="231" y="536"/>
      <point x="211" y="536" type="curve" smooth="yes"/>
      <point x="164" y="536" type="line"/>
      <point x="154" y="470" type="line"/>
      <point x="209" y="470" type="line" smooth="yes"/>
      <point x="228" y="470"/>
      <point x="242" y="461"/>
      <point x="242" y="438" type="curve" smooth="yes"/>
      <point x="242" y="407"/>
      <point x="224" y="385"/>
      <point x="192" y="385" type="curve" smooth="yes"/>
      <point x="178" y="385" type="line" smooth="yes"/>
      <point x="145" y="385"/>
      <point x="141" y="403"/>
      <point x="141" y="423" type="curve"/>
      <point x="46" y="423" type="line"/>
      <point x="43" y="407"/>
      <point x="43" y="402"/>
      <point x="43" y="398" type="curve" smooth="yes"/>
      <point x="43" y="345"/>
      <point x="85" y="305"/>
      <point x="169" y="305" type="curve" smooth="yes"/>
      <point x="191" y="305" type="line" smooth="yes"/>
      <point x="266" y="305"/>
      <point x="347" y="342"/>
      <point x="347" y="431" type="curve" smooth="yes"/>
      <point x="347" y="469"/>
      <point x="331" y="495"/>
      <point x="298" y="508" type="curve"/>
      <point x="333" y="523"/>
      <point x="362" y="561"/>
      <point x="362" y="604" type="curve" smooth="yes"/>
      <point x="362" y="655"/>
      <point x="318" y="693"/>
      <point x="246" y="693" type="curve" smooth="yes"/>
    </contour>
    <contour>
      <point x="522" y="375" type="line"/>
      <point x="503" y="322"/>
      <point x="440" y="211"/>
      <point x="408" y="162" type="curve"/>
      <point x="396" y="81" type="line"/>
      <point x="547" y="81" type="line"/>
      <point x="536" y="0" type="line"/>
      <point x="637" y="0" type="line"/>
      <point x="648" y="81" type="line"/>
      <point x="701" y="81" type="line"/>
      <point x="712" y="161" type="line"/>
      <point x="659" y="161" type="line"/>
      <point x="684" y="339" type="line"/>
      <point x="639" y="339" type="line"/>
      <point x="628" y="309"/>
      <point x="587" y="242"/>
      <point x="566" y="216" type="curve"/>
      <point x="558" y="161" type="line"/>
      <point x="477" y="161" type="line"/>
      <point x="522" y="206"/>
      <point x="601" y="318"/>
      <point x="617" y="375" type="curve"/>
    </contour>
  </outline>
</glyph>
<glyph name="Aring" format="1">
  <advance width="709"/>
  <unicode hex="00C5"/>
  <outline>
    <contour>
      <point x="281" y="686" type="line"/>
      <point x="-44" y="0" type="line"/>
      <point x="157" y="0" type="line"/>
      <point x="214" y="122" type="line"/>
      <point x="432" y="122" type="line"/>
      <point x="456" y="0" type="line"/>
      <point x="674" y="0" type="line"/>
      <point x="542" y="686" type="line"/>
    </contour>
    <contour>
      <point x="405" y="267" type="line"/>
      <point x="283" y="267" type="line"/>
      <point x="371" y="475" type="line"/>
      <point x="376" y="475" type="line"/>
    </contour>
    <contour>
      <point x="376" y="937"/>
      <point x="322" y="885"/>
      <point x="322" y="823" type="curve" smooth="yes"/>
      <point x="322" y="772"/>
      <point x="359" y="736"/>
      <point x="410" y="736" type="curve" smooth="yes"/>
      <point x="474" y="736"/>
      <point x="526" y="787"/>
      <point x="526" y="851" type="curve" smooth="yes"/>
      <point x="526" y="900"/>
      <point x="490" y="937"/>
      <point x="439" y="937" type="curve" smooth="yes"/>
    </contour>
    <contour>
      <point x="448" y="871"/>
      <point x="460" y="859"/>
      <point x="460" y="840" type="curve" smooth="yes"/>
      <point x="460" y="813"/>
      <point x="439" y="801"/>
      <point x="420" y="801" type="curve" smooth="yes"/>
      <point x="401" y="801"/>
      <point x="389" y="814"/>
      <point x="389" y="831" type="curve" smooth="yes"/>
      <point x="389" y="854"/>
      <point x="406" y="871"/>
      <point x="429" y="871" type="curve" smooth="yes"/>
    </contour>
  </outline>
</glyph>
<glyph name="AE" format="1">
  <advance width="1011"/>
  <unicode hex="00C6"/>
  <outline>
    <contour>
      <point x="368" y="686" type="line"/>
      <point x="-53" y="0" type="line"/>
      <point x="146" y="0" type="line"/>
      <point x="221" y="122" type="line"/>
      <point x="439" y="122" type="line"/>
      <point x="439" y="0" type="line"/>
      <point x="942" y="0" type="line"/>
      <point x="942" y="164" type="line"/>
      <point x="656" y="164" type="line"/>
      <point x="656" y="275" type="line"/>
      <point x="950" y="275" type="line"/>
      <point x="971" y="428" type="line"/>
      <point x="642" y="428" type="line"/>
      <point x="642" y="528" type="line"/>
      <point x="997" y="528" type="line"/>
      <point x="1039" y="686" type="line"/>
    </contour>
    <contour>
      <point x="433" y="267" type="line"/>
      <point x="311" y="267" type="line"/>
      <point x="428" y="475" type="line"/>
      <point x="433" y="475" type="line"/>
    </contour>
    <contour>
      <point x="605" y="686" type="move" name="top"/>
    </contour>
  </outline>
</glyph>
<glyph name="Iacute" format="1">
  <advance width="446"/>
  <unicode hex="00CD"/>
  <outline>
    <contour>
      <point x="92" y="686" type="line"/>
      <point x="71" y="539" type="line"/>
      <point x="152" y="539" type="line"/>
      <point x="97" y="148" type="line"/>
      <point x="16" y="148" type="line"/>
      <point x="-5" y="0" type="line"/>
      <point x="369" y="0" type="line"/>
      <point x="390" y="148" type="line"/>
      <point x="309" y="148" type="line"/>
      <point x="364" y="539" type="line"/>
      <point x="445" y="539" type="line"/>
      <point x="466" y="686" type="line"/>
    </contour>
    <contour>
      <point x="336" y="895" type="line"/>
      <point x="224" y="750" type="line"/>
      <point x="342" y="750" type="line"/>
      <point x="488" y="892" type="line"/>
      <point x="487" y="895" type="line"/>
    </contour>
  </outline>
</glyph>
<glyph name="Icircumflex" format="1">
  <advance width="446"/>
  <unicode hex="00CE"/>
  <outline>
    <contour>
      <point x="92" y="686" type="line"/>
      <point x="71" y="539" type="line"/>
      <point x="152" y="539" type="line"/>
      <point x="97" y="148" type="line"/>
      <point x="16" y="148" type="line"/>
      <point x="-5" y="0" type="line"/>
      <point x="369" y="0" type="line"/>
      <point x="390" y="148" type="line"/>
      <point x="309" y="148" type="line"/>
      <point x="364" y="539" type="line"/>
      <point x="445" y="539" type="line"/>
      <point x="466" y="686" type="line"/>
    </contour>
    <contour>
      <point x="241" y="895" type="line"/>
      <point x="81" y="750" type="line"/>
      <point x="209" y="750" type="line"/>
      <point x="294" y="827" type="line"/>
      <point x="357" y="750" type="line"/>
      <point x="487" y="750" type="line"/>
      <point x="369" y="895" type="line"/>
    </contour>
  </outline>
</glyph>
<glyph name="Eth" format="1">
  <advance width="718"/>
  <unicode hex="00D0"/>
  <outline>
    <contour>
      <point x="134" y="686" type="line"/>
      <point x="92" y="391" type="line"/>
      <point x="18" y="391" type="line"/>
      <point x="5" y="297" type="line"/>
      <point x="79" y="297" type="line"/>
      <point x="37" y="0" type="line"/>
      <point x="346" y="0" type="line" smooth="yes"/>
      <point x="541" y="0"/>
      <point x="663" y="134"/>
      <point x="688" y="300" type="curve" smooth="yes"/>
      <point x="701" y="386" type="line" smooth="yes"/>
      <point x="703" y="400"/>
      <point x="704" y="414"/>
      <point x="704" y="428" type="curve" smooth="yes"/>
      <point x="704" y="574"/>
      <point x="595" y="686"/>
      <point x="443" y="686" type="curve" smooth="yes"/>
    </contour>
    <contour>
      <point x="452" y="530"/>
      <point x="488" y="492"/>
      <point x="488" y="443" type="curve"/>
      <point x="463" y="259" type="line" smooth="yes"/>
      <point x="455" y="203"/>
      <point x="417" y="159"/>
      <point x="349" y="159" type="curve" smooth="yes"/>
      <point x="272" y="159" type="line"/>
      <point x="291" y="297" type="line"/>
      <point x="368" y="297" type="line"/>
      <point x="381" y="391" type="line"/>
      <point x="304" y="391" type="line"/>
      <point x="324" y="530" type="line"/>
      <point x="401" y="530" type="line" smooth="yes"/>
    </contour>
  </outline>
</glyph>
<glyph name="Ntilde" format="1">
  <advance width="696"/>
  <unicode hex="00D1"/>
  <outline>
    <contour>
      <point x="501" y="686" type="line"/>
      <point x="457" y="375" type="line"/>
      <point x="429" y="431" type="line"/>
      <point x="289" y="686" type="line"/>
      <point x="113" y="686" type="line"/>
      <point x="16" y="0" type="line"/>
      <point x="209" y="0" type="line"/>
      <point x="252" y="304" type="line"/>
      <point x="265" y="278" type="line" smooth="yes"/>
      <point x="271" y="265"/>
      <point x="279" y="250"/>
      <point x="282" y="246" type="curve" smooth="yes"/>
      <point x="418" y="0" type="line"/>
      <point x="598" y="0" type="line"/>
      <point x="695" y="686" type="line"/>
    </contour>
    <contour>
      <point x="576" y="889" type="line"/>
      <point x="565" y="866"/>
      <point x="545" y="849"/>
      <point x="520" y="849" type="curve" smooth="yes"/>
      <point x="466" y="849"/>
      <point x="417" y="889"/>
      <point x="353" y="889" type="curve" smooth="yes"/>
      <point x="268" y="889"/>
      <point x="204" y="818"/>
      <point x="193" y="746" type="curve"/>
      <point x="273" y="746" type="line"/>
      <point x="284" y="769"/>
      <point x="304" y="786"/>
      <point x="329" y="786" type="curve" smooth="yes"/>
      <point x="382" y="786"/>
      <point x="432" y="746"/>
      <point x="496" y="746" type="curve" smooth="yes"/>
      <point x="583" y="746"/>
      <point x="646" y="817"/>
      <point x="657" y="889" type="curve"/>
    </contour>
  </outline>
</glyph>
<glyph name="divide" format="1">
  <advance width="615"/>
  <unicode hex="00F7"/>
  <outline>
    <contour>
      <point x="56" y="321" type="line"/>
      <point x="38" y="193" type="line"/>
      <point x="550" y="193" type="line"/>
      <point x="568" y="321" type="line"/>
    </contour>
    <contour>
      <point x="225" y="144" type="line"/>
      <point x="207" y="17" type="line"/>
      <point x="334" y="17" type="line"/>
      <point x="352" y="144" type="line"/>
    </contour>
    <contour>
      <point x="274" y="496" type="line"/>
      <point x="256" y="369" type="line"/>
      <point x="383" y="369" type="line"/>
      <point x="401" y="496" type="line"/>
    </contour>
  </outline>
</glyph>
<glyph name="oslash" format="1">
  <advance width="613"/>
  <unicode hex="00F8"/>
  <outline>
    <contour>
      <point x="498" y="569" type="line"/>
      <point x="448" y="504" type="line"/>
      <point x="416" y="515"/>
      <point x="380" y="521"/>
      <point x="340" y="521" type="curve" smooth="yes"/>
      <point x="323" y="521" type="line" smooth="yes"/>
      <point x="111" y="521"/>
      <point x="16" y="354"/>
      <point x="16" y="205" type="curve" smooth="yes"/>
      <point x="16" y="134"/>
      <point x="40" y="80"/>
      <point x="89" y="41" type="curve"/>
      <point x="14" y="-55" type="line"/>
      <point x="106" y="-55" type="line"/>
      <point x="154" y="7" type="line"/>
      <point x="187" y="-4"/>
      <point x="224" y="-10"/>
      <point x="265" y="-10" type="curve" smooth="yes"/>
      <point x="280" y="-10" type="line" smooth="yes"/>
      <point x="461" y="-10"/>
      <point x="587" y="123"/>
      <point x="587" y="305" type="curve" smooth="yes"/>
      <point x="587" y="376"/>
      <point x="562" y="431"/>
      <point x="513" y="470" type="curve"/>
      <point x="590" y="569" type="line"/>
    </contour>
    <contour>
      <point x="361" y="210"/>
      <point x="370" y="111"/>
      <point x="281" y="111" type="curve" smooth="yes"/>
      <point x="266" y="111"/>
      <point x="254" y="115"/>
      <point x="244" y="123" type="curve"/>
      <point x="375" y="292" type="line"/>
    </contour>
    <contour>
      <point x="336" y="400"/>
      <point x="348" y="396"/>
      <point x="358" y="388" type="curve"/>
      <point x="227" y="219" type="line"/>
      <point x="243" y="330" type="line" smooth="yes"/>
      <point x="248" y="369"/>
      <point x="281" y="400"/>
      <point x="322" y="400" type="curve" smooth="yes"/>
    </contour>
    <contour>
      <point x="337" y="511" type="move" name="top"/>
    </contour>
  </outline>
</glyph>
<glyph name="tilde" format="1">
  <advance width="333"/>
  <unicode hex="02DC"/>
  <outline>
    <contour>
      <point x="341" y="719" type="line"/>
      <point x="330" y="696"/>
      <point x="310" y="679"/>
      <point x="285" y="679" type="curve" smooth="yes"/>
      <point x="231" y="679"/>
      <point x="182" y="719"/>
      <point x="118" y="719" type="curve" smooth="yes"/>
      <point x="33" y="719"/>
      <point x="-31" y="648"/>
      <point x="-42" y="576" type="curve"/>
      <point x="38" y="576" type="line"/>
      <point x="49" y="599"/>
      <point x="69" y="616"/>
      <point x="94" y="616" type="curve" smooth="yes"/>
      <point x="147" y="616"/>
      <point x="197" y="576"/>
      <point x="261" y="576" type="curve" smooth="yes"/>
      <point x="348" y="576"/>
      <point x="411" y="647"/>
      <point x="422" y="719" type="curve"/>
    </contour>
    <contour>
      <point x="190" y="511" type="move" name="_top"/>
    </contour>
  </outline>
</glyph>
<glyph name="mu" format="1">
  <advance width="650"/>
  <unicode hex="03BC"/>
  <outline>
    <contour>
      <point x="391" y="511" type="line"/>
      <point x="346" y="191" type="line" smooth="yes"/>
      <point x="341" y="158"/>
      <point x="320" y="131"/>
      <point x="285" y="131" type="curve" smooth="yes"/>
      <point x="254" y="131"/>
      <point x="239" y="153"/>
      <point x="239" y="181" type="curve" smooth="yes"/>
      <point x="239" y="188"/>
      <point x="249" y="272"/>
      <point x="262" y="352" type="curve"/>
      <point x="285" y="511" type="line"/>
      <point x="87" y="511" type="line"/>
      <point x="-8" y="-161" type="line"/>
      <point x="190" y="-161" type="line"/>
      <point x="201" y="-83" type="line" smooth="yes"/>
      <point x="205" y="-56"/>
      <point x="205" y="-33"/>
      <point x="205" y="-18" type="curve" smooth="yes"/>
      <point x="205" y="-8" type="line"/>
      <point x="283" y="0"/>
      <point x="329" y="50"/>
      <point x="345" y="71" type="curve"/>
      <point x="356" y="20"/>
      <point x="392" y="-10"/>
      <point x="481" y="-10" type="curve" smooth="yes"/>
      <point x="531" y="-10"/>
      <point x="564" y="0"/>
      <point x="585" y="13" type="curve"/>
      <point x="600" y="120" type="line"/>
      <point x="586" y="114"/>
      <point x="576" y="111"/>
      <point x="564" y="111" type="curve" smooth="yes"/>
      <point x="551" y="111"/>
      <point x="537" y="120"/>
      <point x="537" y="140" type="curve" smooth="yes"/>
      <point x="537" y="158"/>
      <point x="563" y="336"/>
      <point x="589" y="511" type="curve"/>
    </contour>
  </outline>
</glyph>
<glyph name="quotedblbase" format="1">
  <advance width="534"/>
  <unicode hex="201E"/>
  <outline>
    <contour>
      <point x="281" y="183" type="line"/>
      <point x="255" y="0" type="line"/>
      <point x="339" y="0" type="line"/>
      <point x="279" y="-165" type="line"/>
      <point x="373" y="-165" type="line"/>
      <point x="449" y="22" type="line"/>
      <point x="472" y="183" type="line"/>
    </contour>
    <contour>
      <point x="33" y="183" type="line"/>
      <point x="7" y="0" type="line"/>
      <point x="91" y="0" type="line"/>
      <point x="31" y="-165" type="line"/>
      <point x="125" y="-165" type="line"/>
      <point x="201" y="22" type="line"/>
      <point x="224" y="183" type="line"/>
    </contour>
  </outline>
</glyph>
<glyph name="dagger" format="1">
  <advance width="568"/>
  <unicode hex="2020"/>
  <outline>
    <contour>
      <point x="268" y="686" type="line"/>
      <point x="268" y="490" type="line"/>
      <point x="55" y="510" type="line"/>
      <point x="35" y="368" type="line"/>
      <point x="246" y="388" type="line"/>
      <point x="149" y="-161" type="line"/>
      <point x="292" y="-161" type="line"/>
      <point x="349" y="388" type="line"/>
      <point x="554" y="368" type="line"/>
      <point x="574" y="510" type="line"/>
      <point x="363" y="490" type="line"/>
      <point x="411" y="686" type="line"/>
    </contour>
  </outline>
</glyph>
<glyph name="estimated" format="1">
  <advance width="723"/>
  <unicode hex="212E"/>
  <outline>
    <contour>
      <point x="92" y="150" type="line"/>
      <point x="253" y="70" type="line"/>
      <point x="253" y="599" type="line"/>
      <point x="92" y="539" type="line"/>
    </contour>
    <contour>
      <point x="458" y="599" type="line"/>
      <point x="458" y="340" type="line"/>
      <point x="622" y="346" type="line"/>
      <point x="622" y="539" type="line"/>
    </contour>
    <contour>
      <point x="60" y="298" type="line"/>
      <point x="660" y="298" type="line"/>
      <point x="660" y="393" type="line"/>
      <point x="60" y="393" type="line"/>
    </contour>
    <contour>
      <point x="682" y="298" type="line"/>
      <point x="682" y="358" type="line" smooth="yes"/>
      <point x="682" y="569"/>
      <point x="552" y="696"/>
      <point x="356" y="696" type="curve" smooth="yes"/>
      <point x="160" y="696"/>
      <point x="30" y="569"/>
      <point x="30" y="357" type="curve" smooth="yes"/>
      <point x="30" y="329" type="line" smooth="yes"/>
      <point x="30" y="117"/>
      <point x="160" y="-10"/>
      <point x="358" y="-10" type="curve" smooth="yes"/>
      <point x="479" y="-10"/>
      <point x="574" y="34"/>
      <point x="632" y="112" type="curve"/>
      <point x="548" y="171" type="line"/>
      <point x="507" y="113"/>
      <point x="440" y="85"/>
      <point x="358" y="85" type="curve" smooth="yes"/>
      <point x="228" y="85"/>
      <point x="134" y="162"/>
      <point x="134" y="319" type="curve" smooth="yes"/>
      <point x="134" y="367" type="line" smooth="yes"/>
      <point x="134" y="524"/>
      <point x="223" y="601"/>
      <point x="356" y="601" type="curve" smooth="yes"/>
      <point x="489" y="601"/>
      <point x="578" y="524"/>
      <point x="578" y="366" type="curve" smooth="yes"/>
      <point x="578" y="298" type="line"/>
    </contour>
  </outline>
</glyph>
<glyph name="infinity" format="1">
  <advance width="822"/>
  <unicode hex="221E"/>
  <outline>
    <contour>
      <point x="531" y="476"/>
      <point x="470" y="406"/>
      <point x="429" y="368" type="curve"/>
      <point x="386" y="440"/>
      <point x="336" y="476"/>
      <point x="255" y="476" type="curve" smooth="yes"/>
      <point x="139" y="476"/>
      <point x="35" y="383"/>
      <point x="35" y="250" type="curve" smooth="yes"/>
      <point x="35" y="151"/>
      <point x="104" y="91"/>
      <point x="189" y="91" type="curve" smooth="yes"/>
      <point x="273" y="91"/>
      <point x="333" y="136"/>
      <point x="396" y="204" type="curve"/>
      <point x="451" y="104"/>
      <point x="522" y="91"/>
      <point x="572" y="91" type="curve" smooth="yes"/>
      <point x="664" y="91"/>
      <point x="767" y="162"/>
      <point x="783" y="290" type="curve" smooth="yes"/>
      <point x="784" y="295"/>
      <point x="785" y="301"/>
      <point x="785" y="306" type="curve" smooth="yes"/>
      <point x="785" y="322" type="line" smooth="yes"/>
      <point x="785" y="419"/>
      <point x="715" y="476"/>
      <point x="627" y="476" type="curve" smooth="yes"/>
    </contour>
    <contour>
      <point x="300" y="378"/>
      <point x="321" y="338"/>
      <point x="350" y="285" type="curve" smooth="yes"/>
      <point x="354" y="277" type="line"/>
      <point x="317" y="237"/>
      <point x="268" y="190"/>
      <point x="214" y="190" type="curve" smooth="yes"/>
      <point x="169" y="190"/>
      <point x="138" y="226"/>
      <point x="138" y="269" type="curve" smooth="yes"/>
      <point x="138" y="340"/>
      <point x="194" y="378"/>
      <point x="239" y="378" type="curve" smooth="yes"/>
    </contour>
    <contour>
      <point x="654" y="378"/>
      <point x="680" y="346"/>
      <point x="680" y="299" type="curve" smooth="yes"/>
      <point x="680" y="261"/>
      <point x="650" y="190"/>
      <point x="586" y="190" type="curve" smooth="yes"/>
      <point x="544" y="190"/>
      <point x="513" y="205"/>
      <point x="468" y="285" type="curve"/>
      <point x="469" y="287"/>
      <point x="471" y="289"/>
      <point x="474" y="291" type="curve"/>
      <point x="509" y="328"/>
      <point x="555" y="378"/>
      <point x="607" y="378" type="curve" smooth="yes"/>
    </contour>
  </outline>
</glyph>
